<?xml version="1.0" encoding="UTF-8" ?>
<!DOCTYPE svg PUBLIC "-//W3C//DTD SVG 1.1//EN" "http://www.w3.org/Graphics/SVG/1.1/DTD/svg11.dtd">
<svg width="1024pt" height="1024pt" viewBox="0 0 1024 1024" version="1.1" xmlns="http://www.w3.org/2000/svg">
<g id="#a7ccdbff">
<path fill="#a7ccdb" opacity="1.00" d=" M 0.00 0.00 L 1024.00 0.00 L 1024.00 1024.00 L 0.00 1024.00 L 0.00 0.00 M 458.72 221.73 C 440.12 225.53 421.57 230.28 404.22 238.12 C 361.63 254.79 323.61 282.18 292.85 315.89 C 283.77 326.23 275.40 337.19 267.62 348.55 C 260.47 359.57 253.91 370.97 247.57 382.48 C 238.42 400.88 231.28 420.29 226.42 440.26 C 221.01 460.65 218.18 481.69 217.53 502.77 C 216.89 513.92 218.07 525.05 218.15 536.19 C 218.93 543.48 219.53 550.84 221.28 557.98 C 221.72 558.03 222.61 558.13 223.05 558.18 L 222.29 558.30 C 222.35 566.32 224.31 574.26 226.06 582.07 C 227.31 589.70 229.58 597.10 232.14 604.38 C 233.86 608.75 234.26 614.75 239.07 616.94 C 238.59 616.77 237.64 616.44 237.16 616.27 C 239.46 625.03 244.11 632.89 248.05 640.97 C 249.49 643.71 250.91 646.91 253.98 648.16 C 253.23 647.99 251.73 647.66 250.98 647.50 C 254.33 656.03 260.26 663.16 265.13 670.84 C 267.71 674.57 269.91 679.80 275.21 679.91 C 273.85 679.84 272.50 679.82 271.14 679.85 C 273.03 682.61 274.80 685.47 277.10 687.92 C 278.93 689.86 281.78 690.11 284.27 690.56 C 282.65 690.60 281.04 690.72 279.44 690.92 C 282.05 698.40 289.32 702.63 293.39 709.20 L 293.96 709.21 C 299.49 715.62 305.96 721.11 311.95 727.08 C 327.39 742.10 345.26 754.35 363.79 765.23 C 378.95 774.30 395.19 781.42 411.82 787.32 C 428.59 793.07 445.66 798.24 463.24 800.82 C 486.55 804.76 510.28 805.53 533.87 804.49 C 540.93 804.05 547.94 803.01 554.96 802.17 C 588.74 797.88 621.64 787.33 651.97 771.93 C 680.44 757.67 706.30 738.28 728.17 715.15 C 733.55 709.33 739.47 703.91 743.89 697.29 C 748.25 691.71 753.19 686.50 756.35 680.09 C 758.34 677.37 760.21 674.57 762.00 671.72 C 761.67 671.64 761.02 671.46 760.70 671.38 C 761.15 671.29 762.05 671.11 762.50 671.03 C 768.75 663.81 772.97 655.04 777.72 646.80 L 776.86 646.58 C 778.63 644.37 780.28 642.02 781.34 639.38 C 783.53 633.90 786.12 628.59 788.05 623.01 C 787.03 622.65 786.02 622.32 785.01 622.01 C 786.30 622.13 788.32 622.56 788.90 620.94 C 791.11 616.54 792.46 611.77 794.45 607.27 C 795.46 600.67 798.30 594.57 800.12 588.19 C 800.81 586.17 800.58 584.02 800.18 581.99 C 800.60 581.99 801.42 581.99 801.84 581.99 C 803.27 574.36 804.57 566.70 805.69 559.01 C 804.06 558.75 802.44 558.48 800.81 558.34 C 802.53 558.32 804.26 558.14 806.00 558.01 C 807.25 550.72 808.16 543.38 809.18 536.06 C 810.57 523.12 810.78 510.04 810.27 497.04 C 809.94 475.27 805.67 453.77 800.11 432.79 C 795.81 418.89 791.54 404.90 785.22 391.75 C 777.49 375.16 768.61 359.04 757.71 344.31 C 744.15 323.98 726.99 306.40 709.08 289.89 C 695.42 277.49 679.73 267.68 664.32 257.65 C 632.65 239.44 598.06 225.74 561.84 220.13 C 545.06 217.27 528.01 216.36 511.01 216.63 C 493.45 216.29 475.89 218.07 458.72 221.73 Z" />
<path fill="#a7ccdb" opacity="1.00" d=" M 483.03 305.97 C 480.21 302.85 481.70 298.32 482.39 294.67 C 482.57 297.14 482.73 299.62 482.91 302.09 C 487.68 302.13 492.44 302.02 497.21 302.04 L 497.12 302.91 C 493.29 302.72 489.46 302.73 485.63 302.93 C 486.27 304.41 486.84 305.96 487.77 307.30 C 490.32 308.83 493.42 308.93 496.27 309.58 C 496.01 311.08 495.70 312.58 495.45 314.09 C 495.41 313.38 495.32 311.97 495.28 311.26 C 491.07 309.91 486.35 309.11 483.03 305.97 Z" />
<path fill="#a7ccdb" opacity="1.00" d=" M 504.18 333.50 C 508.53 333.55 512.88 333.71 517.24 333.76 C 515.59 334.20 513.97 334.72 512.35 335.23 C 512.17 336.85 511.99 338.47 511.87 340.11 C 511.74 342.56 511.76 345.02 511.85 347.47 C 512.25 348.00 513.05 349.05 513.45 349.58 C 513.89 351.36 514.33 353.15 514.68 354.96 C 511.17 355.12 507.67 355.29 504.16 355.45 C 503.47 348.15 503.62 340.81 504.18 333.50 Z" />
<path fill="#a7ccdb" opacity="1.00" d=" M 477.21 441.41 C 477.91 441.42 479.30 441.42 479.99 441.42 C 479.78 443.38 479.57 445.35 479.37 447.33 C 472.62 449.51 465.77 451.36 458.87 453.01 C 457.87 450.88 456.89 448.73 455.91 446.59 C 458.79 445.78 461.67 444.98 464.58 444.30 C 468.79 443.32 472.96 442.18 477.21 441.41 Z" />
<path fill="#a7ccdb" opacity="1.00" d=" M 587.29 456.09 C 595.85 452.89 604.61 450.25 613.48 448.04 C 617.61 450.83 622.54 451.85 627.47 451.54 C 627.39 451.89 627.24 452.59 627.16 452.95 C 613.94 456.22 600.99 460.47 587.87 464.11 C 586.08 461.98 584.33 459.83 582.60 457.67 C 584.16 457.17 585.73 456.64 587.29 456.09 Z" />
<path fill="#a7ccdb" opacity="1.00" d=" M 428.48 478.47 C 433.18 477.07 437.93 475.83 442.73 474.75 C 441.90 479.32 441.34 483.96 441.64 488.61 C 437.45 489.75 433.17 490.54 428.88 491.21 C 428.55 486.97 428.40 482.72 428.48 478.47 Z" />
<path fill="#a7ccdb" opacity="1.00" d=" M 368.96 488.96 C 373.43 487.37 378.17 486.45 382.88 485.88 C 384.77 485.93 386.65 486.06 388.54 486.21 C 385.52 487.78 382.41 489.17 379.26 490.46 C 379.87 491.39 380.50 492.31 381.15 493.23 C 376.13 494.83 371.02 496.11 365.82 496.97 C 366.72 494.29 366.94 491.06 368.96 488.96 Z" />
<path fill="#a7ccdb" opacity="1.00" d=" M 430.99 741.69 C 458.94 737.54 486.57 729.28 511.03 714.89 C 536.19 730.08 564.66 740.16 593.99 742.92 C 593.16 744.22 592.34 745.53 591.51 746.83 C 593.09 748.23 594.67 749.61 596.23 751.04 C 594.78 751.12 593.35 751.20 591.92 751.28 C 565.80 749.20 539.89 741.91 517.03 728.96 C 515.05 727.91 513.09 726.74 510.91 726.21 C 506.99 727.06 503.67 729.49 500.07 731.14 C 483.83 739.01 466.46 744.44 448.75 747.81 C 428.15 751.71 406.97 752.94 386.13 750.29 L 385.68 749.65 C 384.19 747.43 382.66 745.25 381.16 743.04 C 381.89 742.99 383.35 742.89 384.08 742.85 C 399.70 743.61 415.44 743.81 430.99 741.69 Z" />
</g>
<g id="#fffeffff">
<path fill="#fffeff" opacity="1.00" d=" M 458.72 221.73 C 475.89 218.07 493.45 216.29 511.01 216.63 C 528.01 216.36 545.06 217.27 561.84 220.13 C 598.06 225.74 632.65 239.44 664.32 257.65 C 679.73 267.68 695.42 277.49 709.08 289.89 C 726.99 306.40 744.15 323.98 757.71 344.31 C 768.61 359.04 777.49 375.16 785.22 391.75 C 791.54 404.90 795.81 418.89 800.11 432.79 C 805.67 453.77 809.94 475.27 810.27 497.04 C 810.78 510.04 810.57 523.12 809.18 536.06 C 793.04 535.58 776.64 532.59 762.44 524.59 C 757.09 521.67 752.05 518.25 746.95 514.95 C 741.33 518.69 735.98 522.88 729.96 525.97 C 719.26 531.48 707.60 535.15 695.64 536.58 C 687.70 537.47 679.43 538.81 671.66 536.19 C 672.70 524.88 675.22 513.80 677.86 502.79 C 683.78 480.35 695.09 459.62 709.31 441.39 C 710.20 440.10 711.09 438.82 711.98 437.55 C 707.99 434.41 704.28 430.93 700.43 427.63 C 701.17 411.10 700.35 394.55 700.72 378.01 C 700.67 374.30 701.12 370.48 700.02 366.88 C 698.45 365.43 695.60 365.41 694.44 367.36 C 693.18 370.31 693.27 373.60 692.86 376.73 C 686.12 376.78 679.38 376.75 672.65 376.97 C 674.47 379.31 676.55 381.50 677.94 384.15 C 676.76 387.46 674.11 389.94 671.99 392.65 C 679.03 392.59 686.07 392.70 693.10 392.83 C 693.23 403.11 693.17 413.40 693.10 423.69 C 667.06 433.39 639.92 439.58 613.48 448.04 C 604.61 450.25 595.85 452.89 587.29 456.09 C 587.30 450.88 585.99 445.79 583.44 441.25 C 594.78 436.79 606.22 432.52 617.39 427.64 C 616.73 425.72 616.40 423.44 614.74 422.10 C 611.05 422.15 607.76 424.14 604.32 425.24 C 596.98 427.75 589.92 430.98 582.63 433.60 C 577.96 435.16 573.51 437.24 569.06 439.33 C 567.15 438.86 565.25 438.38 563.36 437.89 C 567.07 436.04 571.12 435.12 575.04 433.83 C 573.07 431.92 570.99 429.49 567.97 429.73 C 561.60 429.09 557.95 435.10 553.40 438.39 C 545.74 441.31 538.11 444.28 530.83 448.07 C 531.96 443.25 534.71 438.38 539.65 436.69 C 545.70 434.57 552.07 433.56 558.25 431.86 C 557.82 429.36 557.49 426.84 557.20 424.32 C 567.33 419.34 578.46 416.86 588.55 411.82 C 587.49 409.83 586.31 407.91 585.16 405.98 C 576.78 409.03 568.46 412.25 560.19 415.60 C 560.44 411.22 560.62 406.83 560.73 402.45 C 552.21 401.22 543.61 400.75 535.01 400.58 C 534.93 397.97 534.86 395.37 534.80 392.77 C 539.33 392.60 543.87 392.54 548.41 392.46 C 548.91 385.73 549.23 378.98 549.01 372.23 C 543.39 372.29 537.78 372.20 532.17 372.06 C 532.18 369.51 532.19 366.97 532.21 364.42 C 535.78 364.36 539.36 364.28 542.95 364.18 C 543.06 354.16 543.14 344.14 542.89 334.12 C 539.87 334.04 536.85 333.93 533.83 333.82 C 532.16 333.75 530.49 333.69 528.83 333.64 C 528.70 330.18 528.76 326.71 529.00 323.26 C 541.36 322.94 553.73 323.35 566.09 323.15 C 568.30 322.86 571.72 323.15 572.51 320.47 C 573.47 318.00 572.02 314.57 568.98 315.15 C 556.02 314.96 543.06 315.09 530.10 315.18 C 528.44 310.77 526.69 306.41 524.94 302.05 C 529.47 302.04 534.09 302.54 538.56 301.52 C 542.86 300.75 541.97 293.33 537.82 293.03 C 530.51 292.20 523.13 293.08 515.79 292.81 C 515.43 286.35 515.41 279.87 515.92 273.42 C 520.23 273.44 524.59 273.79 528.88 273.08 C 532.52 272.73 532.71 266.75 529.26 265.92 C 524.85 264.89 520.25 265.36 515.76 265.20 C 515.48 259.57 515.94 253.90 515.40 248.29 C 515.36 244.62 509.35 243.91 508.40 247.41 C 507.20 253.25 508.01 259.28 507.80 265.20 C 502.56 265.54 497.15 264.71 492.04 266.13 C 490.50 267.94 491.00 270.53 491.08 272.71 C 496.62 273.32 502.21 273.49 507.78 273.33 C 507.94 279.84 507.93 286.36 507.84 292.88 C 501.86 292.95 495.89 292.82 489.93 292.82 C 487.29 292.76 484.69 293.39 482.39 294.67 C 481.70 298.32 480.21 302.85 483.03 305.97 C 486.35 309.11 491.07 309.91 495.28 311.26 C 495.32 311.97 495.41 313.38 495.45 314.09 L 495.36 314.94 C 482.56 314.66 469.75 315.17 456.94 314.90 C 454.46 315.17 451.17 314.42 449.43 316.66 C 447.70 319.00 450.01 321.51 450.92 323.67 C 448.19 327.03 444.89 330.02 442.93 333.93 C 441.20 338.07 441.88 342.68 441.89 347.04 C 437.30 344.90 432.43 342.52 427.22 343.14 C 421.43 343.60 416.05 347.47 413.99 352.93 C 412.07 357.63 413.38 362.76 414.54 367.47 C 409.55 366.30 403.47 365.34 399.59 369.57 C 395.88 372.48 396.55 377.48 396.89 381.62 C 394.53 384.18 391.45 386.54 390.65 390.10 C 390.71 393.23 393.05 395.76 393.63 398.78 C 393.28 402.93 390.28 407.26 392.75 411.29 C 396.02 417.40 406.39 415.62 408.21 409.16 C 410.25 404.81 406.96 400.77 404.60 397.38 C 406.55 395.81 408.88 394.48 410.15 392.24 C 410.59 389.76 410.17 387.24 409.99 384.75 C 412.01 383.25 414.28 381.97 415.83 379.94 C 417.04 377.30 416.95 374.29 417.29 371.46 C 420.97 373.07 424.81 374.89 428.93 374.67 C 435.07 374.26 441.10 370.24 443.13 364.31 C 444.35 360.44 444.20 356.32 444.27 352.32 C 448.09 354.83 452.24 357.43 457.00 357.29 C 463.68 357.57 470.48 353.51 472.94 347.23 C 474.14 344.15 474.98 340.95 475.78 337.76 C 475.95 346.57 475.95 355.38 476.04 364.19 C 480.40 364.30 484.77 364.34 489.14 364.34 C 489.06 367.07 488.97 369.79 488.87 372.51 C 487.53 372.34 486.19 372.17 484.86 372.01 C 481.38 371.64 477.88 371.76 474.39 371.90 C 474.38 378.57 474.29 385.24 474.30 391.92 C 478.12 392.15 481.94 392.31 485.77 392.41 C 485.76 398.41 485.86 404.42 486.01 410.42 C 494.04 408.84 501.81 406.16 509.88 404.75 C 511.73 404.93 513.61 405.18 515.41 405.75 C 516.68 408.42 512.72 409.71 510.92 410.77 C 497.30 413.80 483.78 417.32 470.37 421.19 C 472.04 424.87 474.39 428.48 473.95 432.73 C 471.05 433.43 468.16 434.16 465.28 434.94 C 465.01 411.25 465.31 387.56 465.04 363.87 C 458.61 365.34 451.53 365.65 445.82 369.20 C 445.34 372.10 445.48 375.06 445.49 378.00 C 445.86 401.71 445.35 425.43 445.65 449.14 C 449.08 448.36 452.51 447.54 455.91 446.59 C 456.89 448.73 457.87 450.88 458.87 453.01 C 449.53 455.15 440.33 457.94 430.83 459.32 C 430.64 457.26 430.46 455.20 430.27 453.14 C 432.07 452.59 433.88 452.05 435.69 451.52 C 436.03 429.09 435.92 406.65 435.80 384.21 C 429.73 385.19 423.72 386.43 417.77 387.96 C 418.22 409.31 417.84 430.67 417.71 452.03 C 414.89 452.05 412.07 452.08 409.26 452.12 C 409.13 443.48 409.40 434.84 409.10 426.21 C 404.08 426.13 399.06 426.13 394.05 426.21 C 393.82 434.93 394.05 443.65 393.81 452.37 C 391.45 452.49 389.09 452.61 386.74 452.77 C 386.62 457.05 386.58 461.33 386.58 465.61 C 381.79 465.62 377.00 465.70 372.22 465.91 C 372.33 468.81 372.42 471.71 372.47 474.61 C 375.61 474.76 378.75 474.87 381.90 475.03 C 381.82 476.89 381.74 478.76 381.67 480.63 C 375.56 480.72 369.46 481.02 363.36 481.32 C 361.07 487.50 359.18 493.81 356.97 500.02 C 356.30 503.24 352.52 503.31 349.99 504.24 C 349.82 500.58 349.71 496.93 349.64 493.28 C 346.78 493.37 343.93 493.43 341.08 493.45 C 340.81 498.22 340.72 503.01 340.71 507.79 C 334.76 507.91 328.81 508.00 322.87 508.07 C 323.58 517.12 324.60 526.15 326.14 535.11 C 315.92 534.46 305.96 531.52 296.60 527.46 C 289.19 524.31 282.95 519.13 276.13 514.96 C 269.94 519.27 263.92 523.92 257.04 527.10 C 244.90 532.86 231.47 535.28 218.15 536.19 C 218.07 525.05 216.89 513.92 217.53 502.77 C 218.18 481.69 221.01 460.65 226.42 440.26 C 231.28 420.29 238.42 400.88 247.57 382.48 C 253.91 370.97 260.47 359.57 267.62 348.55 C 275.40 337.19 283.77 326.23 292.85 315.89 C 323.61 282.18 361.63 254.79 404.22 238.12 C 421.57 230.28 440.12 225.53 458.72 221.73 Z" />
<path fill="#fffeff" opacity="1.00" d=" M 485.63 302.93 C 489.46 302.73 493.29 302.72 497.12 302.91 C 496.89 305.14 496.63 307.36 496.27 309.58 C 493.42 308.93 490.32 308.83 487.77 307.30 C 486.84 305.96 486.27 304.41 485.63 302.93 Z" />
<path fill="#fffeff" opacity="1.00" d=" M 485.04 333.99 C 488.34 333.53 491.67 333.33 495.00 333.32 C 498.06 333.33 501.12 333.45 504.18 333.50 C 503.62 340.81 503.47 348.15 504.16 355.45 C 503.77 355.46 502.98 355.49 502.59 355.50 C 496.75 355.62 490.91 355.70 485.07 355.70 C 484.79 348.47 484.83 341.22 485.04 333.99 M 491.28 340.24 C 491.30 343.18 491.29 346.11 491.26 349.06 C 493.90 349.13 496.54 349.22 499.19 349.31 C 499.15 346.22 499.10 343.15 499.04 340.07 C 496.45 340.15 493.86 340.21 491.28 340.24 Z" />
<path fill="#fffeff" opacity="1.00" d=" M 484.12 381.81 C 484.33 378.83 484.52 375.85 484.79 372.88 C 494.23 374.26 503.79 373.30 513.29 373.89 C 512.75 375.90 512.24 377.91 511.75 379.93 C 502.50 379.72 493.29 380.74 484.12 381.81 Z" />
<path fill="#fffeff" opacity="1.00" d=" M 485.45 427.25 C 494.61 424.42 504.03 422.48 513.18 419.60 C 514.12 421.70 515.05 423.82 515.99 425.93 C 505.80 428.58 495.60 431.22 485.35 433.62 C 485.40 431.49 485.43 429.37 485.45 427.25 Z" />
<path fill="#fffeff" opacity="1.00" d=" M 501.74 443.77 C 511.20 440.84 520.52 437.47 530.08 434.87 C 527.69 437.51 525.63 440.52 522.77 442.69 C 520.50 444.48 516.88 445.53 516.58 448.86 C 515.69 454.12 516.22 459.47 516.48 464.75 C 515.41 464.75 514.35 464.76 513.29 464.77 C 513.20 459.45 512.71 454.15 511.54 448.96 C 509.37 449.66 507.17 450.25 504.99 450.91 C 504.95 453.42 504.96 455.94 504.78 458.46 C 504.02 460.25 501.39 460.07 499.79 460.84 C 485.89 464.28 472.41 469.23 458.56 472.82 C 457.84 469.10 460.84 466.26 464.12 465.21 C 474.92 461.31 486.01 458.28 497.02 455.03 C 497.14 451.91 497.04 448.74 497.72 445.68 C 498.77 444.58 500.37 444.30 501.74 443.77 Z" />
<path fill="#fffeff" opacity="1.00" d=" M 520.82 474.90 C 541.41 469.16 561.97 463.29 582.60 457.67 C 584.33 459.83 586.08 461.98 587.87 464.11 C 582.73 465.49 577.58 466.85 572.41 468.10 C 556.09 473.07 539.62 477.58 523.16 482.06 C 516.15 484.08 508.91 485.46 502.20 488.40 C 502.48 485.69 502.81 482.99 503.17 480.30 C 508.90 478.05 514.86 476.45 520.82 474.90 Z" />
<path fill="#fffeff" opacity="1.00" d=" M 422.35 472.25 C 433.91 469.02 445.69 466.51 456.88 462.10 C 454.53 464.68 452.32 467.45 449.47 469.51 C 447.17 471.18 444.90 472.91 442.73 474.75 C 437.93 475.83 433.18 477.07 428.48 478.47 C 428.40 482.72 428.55 486.97 428.88 491.21 C 433.17 490.54 437.45 489.75 441.64 488.61 C 445.78 487.51 449.91 486.38 454.04 485.25 C 459.73 483.62 465.49 482.25 471.20 480.71 C 471.50 483.04 471.78 485.38 472.07 487.72 C 462.80 490.50 453.27 492.25 443.98 494.93 C 408.09 503.19 372.27 511.75 336.33 519.81 C 336.34 517.96 336.35 516.12 336.36 514.29 C 354.28 509.09 372.60 505.50 390.61 500.62 C 401.17 498.06 411.81 495.83 422.32 493.06 C 422.49 486.12 422.31 479.18 422.35 472.25 Z" />
<path fill="#fffeff" opacity="1.00" d=" M 632.73 469.93 C 632.19 466.37 634.60 462.74 638.08 461.86 C 640.98 460.83 643.85 462.38 646.56 463.31 C 644.20 464.61 641.79 465.86 639.76 467.65 C 638.35 469.30 637.30 471.23 635.75 472.77 C 633.98 473.41 632.63 471.55 632.73 469.93 Z" />
<path fill="#fffeff" opacity="1.00" d=" M 603.44 472.46 C 606.88 469.92 611.23 471.71 614.23 474.04 C 611.83 475.08 609.39 476.06 607.11 477.33 C 605.68 478.90 604.64 480.79 603.57 482.61 C 602.91 482.74 601.58 483.01 600.91 483.14 C 599.46 479.47 599.85 474.75 603.44 472.46 Z" />
<path fill="#fffeff" opacity="1.00" d=" M 557.43 526.05 C 560.36 528.28 563.20 530.62 566.06 532.95 C 580.81 544.71 598.30 552.62 616.41 557.62 C 633.80 562.62 652.06 564.00 670.09 563.22 C 689.77 562.36 709.47 558.42 727.56 550.51 C 734.24 547.67 740.01 543.20 745.95 539.10 C 761.72 550.90 781.12 557.68 800.81 558.34 C 802.44 558.48 804.06 558.75 805.69 559.01 C 804.57 566.70 803.27 574.36 801.84 581.99 C 801.42 581.99 800.60 581.99 800.18 581.99 C 783.96 582.24 767.44 578.22 753.81 569.25 C 751.08 567.47 748.42 565.59 745.75 563.73 C 739.75 567.38 734.46 572.23 727.89 574.91 C 706.15 583.96 682.59 588.93 659.00 588.39 C 637.78 588.85 616.78 584.10 596.91 576.96 C 582.75 571.74 570.47 562.82 557.85 554.78 C 549.22 559.86 541.19 566.02 531.87 569.86 C 516.62 576.30 500.50 580.72 484.12 583.08 C 464.91 584.99 445.27 582.91 426.90 576.95 C 417.79 574.08 409.97 568.50 401.83 563.69 C 398.20 565.70 394.66 567.88 391.15 570.11 C 383.44 574.96 374.67 577.80 365.85 579.85 C 346.52 584.65 325.94 584.36 306.71 579.26 C 295.78 576.43 285.95 570.67 276.86 564.13 C 271.71 567.63 266.71 571.44 261.00 574.01 C 250.06 579.07 238.03 581.27 226.06 582.07 C 224.31 574.26 222.35 566.32 222.29 558.30 L 223.05 558.18 C 236.92 557.50 250.90 554.63 263.40 548.44 C 268.12 546.24 271.84 542.45 276.39 539.99 C 278.57 540.24 280.34 541.74 282.16 542.84 C 295.97 552.81 312.94 557.81 329.82 558.78 C 344.81 559.29 360.02 557.87 374.28 552.98 C 384.55 549.79 393.26 543.35 401.88 537.14 C 405.03 539.41 408.18 541.69 411.48 543.74 C 426.09 552.74 443.02 557.46 460.03 559.00 C 481.05 560.40 502.47 557.31 521.87 548.91 C 535.08 543.68 546.92 535.54 557.43 526.05 Z" />
<path fill="#fffeff" opacity="1.00" d=" M 499.19 593.20 C 504.79 588.68 509.17 582.91 514.15 577.76 C 520.67 583.67 526.32 590.54 533.49 595.73 C 565.44 620.43 606.59 633.50 646.97 629.86 C 670.86 627.55 694.75 619.21 713.12 603.43 C 717.92 599.74 722.08 595.32 726.80 591.55 C 729.48 593.89 732.14 596.27 734.83 598.61 C 749.05 610.82 766.94 617.82 785.01 622.01 C 786.02 622.32 787.03 622.65 788.05 623.01 C 786.12 628.59 783.53 633.90 781.34 639.38 C 780.28 642.02 778.63 644.37 776.86 646.58 C 762.43 643.57 748.44 638.07 736.29 629.66 C 733.24 627.58 730.19 625.51 727.09 623.52 C 713.93 635.16 698.69 644.59 681.93 650.01 C 662.12 656.93 640.89 659.06 620.02 657.72 C 601.70 656.80 583.90 651.66 566.86 645.12 C 547.44 637.79 530.05 626.10 513.97 613.14 C 502.52 623.45 489.90 632.72 475.58 638.62 C 455.34 646.74 432.41 648.93 411.34 642.73 C 401.71 639.83 393.13 634.40 385.20 628.35 C 370.77 640.77 353.30 649.70 334.70 653.83 C 318.81 657.46 302.31 657.35 286.17 655.74 C 275.15 654.64 264.45 651.70 253.98 648.16 C 250.91 646.91 249.49 643.71 248.05 640.97 C 244.11 632.89 239.46 625.03 237.16 616.27 C 237.64 616.44 238.59 616.77 239.07 616.94 C 257.61 625.16 277.69 630.10 298.02 630.35 C 318.06 630.74 338.73 627.36 356.32 617.31 C 364.96 612.39 373.51 606.88 380.18 599.41 C 381.97 598.60 383.61 597.39 385.59 597.08 C 391.17 603.98 399.18 608.19 407.03 611.97 C 429.23 622.57 456.29 619.63 477.30 607.57 C 485.19 603.77 492.43 598.74 499.19 593.20 Z" />
<path fill="#fffeff" opacity="1.00" d=" M 458.45 673.64 C 478.03 669.95 496.27 660.88 512.07 648.88 C 521.66 655.16 531.13 661.70 541.57 666.54 C 558.56 675.36 577.14 680.54 595.84 684.24 C 616.82 688.09 638.61 688.88 659.58 684.52 C 675.53 681.26 691.48 676.87 705.70 668.74 C 712.91 664.82 719.29 659.64 725.93 654.87 C 736.66 661.98 748.12 668.24 760.70 671.38 C 761.02 671.46 761.67 671.64 762.00 671.72 C 760.21 674.57 758.34 677.37 756.35 680.09 C 749.78 677.20 743.00 674.76 736.78 671.16 C 733.20 669.09 729.62 667.01 726.00 665.02 C 718.16 670.24 710.42 675.71 701.88 679.77 C 687.80 686.17 672.82 690.71 657.56 693.26 C 645.81 695.36 633.85 694.54 622.00 694.71 C 603.62 695.16 585.43 691.26 567.93 685.95 C 548.29 679.56 529.68 670.01 513.04 657.78 C 504.54 663.45 496.31 669.66 486.88 673.76 C 470.45 681.67 452.07 684.66 433.95 684.66 C 424.40 684.45 414.70 683.52 405.68 680.19 C 398.70 677.84 392.61 673.61 386.05 670.40 C 380.17 674.15 374.30 678.01 367.86 680.75 C 352.74 687.34 336.28 690.13 319.95 691.52 C 308.05 691.85 296.10 692.11 284.27 690.56 C 281.78 690.11 278.93 689.86 277.10 687.92 C 274.80 685.47 273.03 682.61 271.14 679.85 C 272.50 679.82 273.85 679.84 275.21 679.91 C 281.06 680.61 286.84 681.79 292.69 682.45 C 319.72 685.01 347.89 681.66 372.33 669.30 C 377.18 667.02 380.85 662.77 385.76 660.66 C 390.02 662.77 393.62 666.03 397.98 668.00 C 416.63 677.20 438.37 677.52 458.45 673.64 Z" />
</g>
<g id="#22455aff">
<path fill="#22455a" opacity="1.00" d=" M 508.40 247.41 C 509.35 243.91 515.36 244.62 515.40 248.29 C 515.94 253.90 515.48 259.57 515.76 265.20 C 520.25 265.36 524.85 264.89 529.26 265.92 C 532.71 266.75 532.52 272.73 528.88 273.08 C 524.59 273.79 520.23 273.44 515.92 273.42 C 515.41 279.87 515.43 286.35 515.79 292.81 C 523.13 293.08 530.51 292.20 537.82 293.03 C 541.97 293.33 542.86 300.75 538.56 301.52 C 534.09 302.54 529.47 302.04 524.94 302.05 C 521.94 302.00 518.94 302.02 515.95 302.04 C 515.79 306.42 515.78 310.81 515.93 315.20 C 520.65 315.33 525.37 315.34 530.10 315.18 C 543.06 315.09 556.02 314.96 568.98 315.15 C 572.02 314.57 573.47 318.00 572.51 320.47 C 571.72 323.15 568.30 322.86 566.09 323.15 C 553.73 323.35 541.36 322.94 529.00 323.26 L 528.26 323.32 C 528.10 326.75 528.06 330.19 527.97 333.64 C 524.39 333.62 520.81 333.63 517.24 333.76 C 512.88 333.71 508.53 333.55 504.18 333.50 C 501.12 333.45 498.06 333.33 495.00 333.32 C 494.92 329.98 494.85 326.65 494.78 323.33 C 480.16 323.30 465.52 322.92 450.92 323.67 C 450.01 321.51 447.70 319.00 449.43 316.66 C 451.17 314.42 454.46 315.17 456.94 314.90 C 469.75 315.17 482.56 314.66 495.36 314.94 C 499.31 315.02 503.26 314.98 507.22 314.94 C 507.38 310.72 507.36 306.50 507.16 302.29 C 503.84 302.19 500.52 302.08 497.21 302.04 C 492.44 302.02 487.68 302.13 482.91 302.09 C 482.73 299.62 482.57 297.14 482.39 294.67 C 484.69 293.39 487.29 292.76 489.93 292.82 C 495.89 292.82 501.86 292.95 507.84 292.88 C 507.93 286.36 507.94 279.84 507.78 273.33 C 502.21 273.49 496.62 273.32 491.08 272.71 C 491.00 270.53 490.50 267.94 492.04 266.13 C 497.15 264.71 502.56 265.54 507.80 265.20 C 508.01 259.28 507.20 253.25 508.40 247.41 Z" />
<path fill="#22455a" opacity="1.00" d=" M 476.21 335.28 C 479.15 334.87 482.09 334.42 485.04 333.99 C 484.83 341.22 484.79 348.47 485.07 355.70 C 490.91 355.70 496.75 355.62 502.59 355.50 C 512.97 355.68 523.34 355.65 533.72 355.61 C 533.79 348.35 533.61 341.08 533.83 333.82 C 536.85 333.93 539.87 334.04 542.89 334.12 C 543.14 344.14 543.06 354.16 542.95 364.18 C 539.36 364.28 535.78 364.36 532.21 364.42 C 532.19 366.97 532.18 369.51 532.17 372.06 C 537.78 372.20 543.39 372.29 549.01 372.23 C 549.23 378.98 548.91 385.73 548.41 392.46 C 543.87 392.54 539.33 392.60 534.80 392.77 C 534.86 395.37 534.93 397.97 535.01 400.58 C 543.61 400.75 552.21 401.22 560.73 402.45 C 560.62 406.83 560.44 411.22 560.19 415.60 C 568.46 412.25 576.78 409.03 585.16 405.98 C 586.31 407.91 587.49 409.83 588.55 411.82 C 578.46 416.86 567.33 419.34 557.20 424.32 C 557.49 426.84 557.82 429.36 558.25 431.86 C 552.07 433.56 545.70 434.57 539.65 436.69 C 534.71 438.38 531.96 443.25 530.83 448.07 C 531.62 451.14 532.67 454.58 535.65 456.21 C 542.98 460.58 551.87 459.75 560.04 459.55 C 557.42 456.54 554.12 453.82 552.77 449.96 C 552.03 446.11 552.91 442.21 553.40 438.39 C 557.95 435.10 561.60 429.09 567.97 429.73 C 570.99 429.49 573.07 431.92 575.04 433.83 C 571.12 435.12 567.07 436.04 563.36 437.89 C 562.72 439.22 562.19 440.61 561.68 442.01 C 564.17 441.22 566.65 440.35 569.06 439.33 C 573.51 437.24 577.96 435.16 582.63 433.60 C 589.92 430.98 596.98 427.75 604.32 425.24 C 607.76 424.14 611.05 422.15 614.74 422.10 C 616.40 423.44 616.73 425.72 617.39 427.64 C 606.22 432.52 594.78 436.79 583.44 441.25 C 585.99 445.79 587.30 450.88 587.29 456.09 C 585.73 456.64 584.16 457.17 582.60 457.67 C 561.97 463.29 541.41 469.16 520.82 474.90 C 514.86 476.45 508.90 478.05 503.17 480.30 C 502.81 482.99 502.48 485.69 502.20 488.40 C 499.08 489.77 495.89 490.98 492.60 491.83 C 478.79 495.30 465.13 499.39 451.16 502.17 C 442.16 503.89 433.33 506.37 424.44 508.57 C 397.51 514.45 370.76 521.09 343.85 527.01 C 342.20 527.47 340.38 527.95 339.31 529.40 C 339.60 531.31 340.21 533.16 340.81 535.00 C 345.45 534.15 350.08 532.75 354.84 532.94 C 357.36 533.95 359.11 536.17 360.93 538.09 C 365.31 543.11 369.90 547.95 374.28 552.98 C 360.02 557.87 344.81 559.29 329.82 558.78 C 328.48 550.91 327.58 542.97 326.14 535.11 C 324.60 526.15 323.58 517.12 322.87 508.07 C 328.81 508.00 334.76 507.91 340.71 507.79 C 340.72 503.01 340.81 498.22 341.08 493.45 C 343.93 493.43 346.78 493.37 349.64 493.28 C 349.71 496.93 349.82 500.58 349.99 504.24 C 352.52 503.31 356.30 503.24 356.97 500.02 C 359.18 493.81 361.07 487.50 363.36 481.32 C 369.46 481.02 375.56 480.72 381.67 480.63 C 381.74 478.76 381.82 476.89 381.90 475.03 C 378.75 474.87 375.61 474.76 372.47 474.61 C 372.42 471.71 372.33 468.81 372.22 465.91 C 377.00 465.70 381.79 465.62 386.58 465.61 C 386.58 461.33 386.62 457.05 386.74 452.77 C 389.09 452.61 391.45 452.49 393.81 452.37 C 394.05 443.65 393.82 434.93 394.05 426.21 C 399.06 426.13 404.08 426.13 409.10 426.21 C 409.40 434.84 409.13 443.48 409.26 452.12 C 412.07 452.08 414.89 452.05 417.71 452.03 C 417.84 430.67 418.22 409.31 417.77 387.96 C 423.72 386.43 429.73 385.19 435.80 384.21 C 435.92 406.65 436.03 429.09 435.69 451.52 C 433.88 452.05 432.07 452.59 430.27 453.14 C 430.46 455.20 430.64 457.26 430.83 459.32 C 440.33 457.94 449.53 455.15 458.87 453.01 C 465.77 451.36 472.62 449.51 479.37 447.33 C 479.57 445.35 479.78 443.38 479.99 441.42 C 479.30 441.42 477.91 441.42 477.21 441.41 C 476.35 441.38 474.62 441.32 473.76 441.29 C 473.79 438.44 473.90 435.58 473.95 432.73 C 474.39 428.48 472.04 424.87 470.37 421.19 C 483.78 417.32 497.30 413.80 510.92 410.77 C 524.32 408.00 537.91 411.96 551.39 410.26 C 547.95 408.08 544.11 406.54 540.03 406.20 C 530.03 405.14 519.93 403.26 509.88 404.75 C 501.81 406.16 494.04 408.84 486.01 410.42 C 485.86 404.42 485.76 398.41 485.77 392.41 C 481.94 392.31 478.12 392.15 474.30 391.92 C 474.29 385.24 474.38 378.57 474.39 371.90 C 477.88 371.76 481.38 371.64 484.86 372.01 L 484.79 372.88 C 484.52 375.85 484.33 378.83 484.12 381.81 C 493.29 380.74 502.50 379.72 511.75 379.93 C 520.71 380.68 529.71 380.83 538.71 380.58 C 538.71 378.54 538.72 376.50 538.75 374.47 C 529.83 374.02 520.90 373.80 512.00 373.08 C 511.82 370.16 511.65 367.25 511.50 364.34 C 507.15 364.27 502.80 364.27 498.46 364.33 C 498.29 367.27 498.10 370.21 497.92 373.15 C 494.89 373.03 491.87 372.89 488.87 372.51 C 488.97 369.79 489.06 367.07 489.14 364.34 C 484.77 364.34 480.40 364.30 476.04 364.19 C 475.95 355.38 475.95 346.57 475.78 337.76 C 475.89 337.14 476.10 335.90 476.21 335.28 M 495.26 389.15 C 495.26 391.82 495.25 394.49 495.22 397.16 C 501.11 397.47 507.01 397.20 512.89 396.64 C 512.55 394.22 512.34 391.78 512.04 389.36 C 506.45 389.26 500.85 389.16 495.26 389.15 M 513.18 419.60 C 504.03 422.48 494.61 424.42 485.45 427.25 C 485.43 429.37 485.40 431.49 485.35 433.62 C 495.60 431.22 505.80 428.58 515.99 425.93 C 525.98 424.78 536.00 423.62 546.06 423.64 C 535.36 420.66 524.23 419.99 513.18 419.60 M 501.74 443.77 C 500.37 444.30 498.77 444.58 497.72 445.68 C 497.04 448.74 497.14 451.91 497.02 455.03 C 486.01 458.28 474.92 461.31 464.12 465.21 C 460.84 466.26 457.84 469.10 458.56 472.82 C 472.41 469.23 485.89 464.28 499.79 460.84 C 501.39 460.07 504.02 460.25 504.78 458.46 C 505.89 459.09 507.00 459.72 508.12 460.37 C 507.02 464.83 505.93 469.29 504.80 473.75 C 513.25 471.80 521.59 469.42 529.94 467.12 C 526.74 463.50 522.80 459.95 521.90 454.99 C 521.47 450.87 522.44 446.78 522.77 442.69 C 525.63 440.52 527.69 437.51 530.08 434.87 C 520.52 437.47 511.20 440.84 501.74 443.77 M 422.35 472.25 C 422.31 479.18 422.49 486.12 422.32 493.06 C 411.81 495.83 401.17 498.06 390.61 500.62 C 372.60 505.50 354.28 509.09 336.36 514.29 C 336.35 516.12 336.34 517.96 336.33 519.81 C 372.27 511.75 408.09 503.19 443.98 494.93 C 453.27 492.25 462.80 490.50 472.07 487.72 C 473.91 487.29 475.75 486.88 477.61 486.49 C 477.65 484.07 477.70 481.66 477.80 479.25 C 475.60 479.77 473.40 480.25 471.20 480.71 C 465.49 482.25 459.73 483.62 454.04 485.25 C 450.30 480.85 449.28 475.12 449.47 469.51 C 452.32 467.45 454.53 464.68 456.88 462.10 C 445.69 466.51 433.91 469.02 422.35 472.25 M 382.88 485.88 C 378.17 486.45 373.43 487.37 368.96 488.96 C 366.94 491.06 366.72 494.29 365.82 496.97 C 371.02 496.11 376.13 494.83 381.15 493.23 C 387.50 491.67 394.03 490.60 400.11 488.15 C 402.41 487.49 402.17 484.91 402.50 483.04 C 395.89 483.41 389.36 484.56 382.88 485.88 Z" />
<path fill="#22455a" opacity="1.00" d=" M 511.87 340.11 C 517.34 340.12 522.81 340.14 528.28 340.09 C 528.26 343.09 528.26 346.10 528.29 349.11 C 523.34 349.21 518.39 349.26 513.45 349.58 C 513.05 349.05 512.25 348.00 511.85 347.47 C 511.76 345.02 511.74 342.56 511.87 340.11 Z" />
<path fill="#22455a" opacity="1.00" d=" M 445.82 369.20 C 451.53 365.65 458.61 365.34 465.04 363.87 C 465.31 387.56 465.01 411.25 465.28 434.94 C 465.25 438.07 464.96 441.19 464.58 444.30 C 461.67 444.98 458.79 445.78 455.91 446.59 C 452.51 447.54 449.08 448.36 445.65 449.14 C 445.35 425.43 445.86 401.71 445.49 378.00 C 445.48 375.06 445.34 372.10 445.82 369.20 Z" />
<path fill="#22455a" opacity="1.00" d=" M 694.44 367.36 C 695.60 365.41 698.45 365.43 700.02 366.88 C 701.12 370.48 700.67 374.30 700.72 378.01 C 700.35 394.55 701.17 411.10 700.43 427.63 C 698.11 426.09 695.60 424.87 693.10 423.69 C 693.17 413.40 693.23 403.11 693.10 392.83 C 686.07 392.70 679.03 392.59 671.99 392.65 C 674.11 389.94 676.76 387.46 677.94 384.15 C 676.55 381.50 674.47 379.31 672.65 376.97 C 679.38 376.75 686.12 376.78 692.86 376.73 C 693.27 373.60 693.18 370.31 694.44 367.36 Z" />
<path fill="#22455a" opacity="1.00" d=" M 681.45 437.47 C 686.53 436.23 691.40 433.37 696.73 433.57 C 701.42 435.23 705.18 438.70 709.31 441.39 C 695.09 459.62 683.78 480.35 677.86 502.79 C 675.22 513.80 672.70 524.88 671.66 536.19 C 670.86 545.18 670.96 554.23 670.09 563.22 C 652.06 564.00 633.80 562.62 616.41 557.62 C 598.30 552.62 580.81 544.71 566.06 532.95 C 563.20 530.62 560.36 528.28 557.43 526.05 C 546.92 535.54 535.08 543.68 521.87 548.91 C 502.47 557.31 481.05 560.40 460.03 559.00 C 443.02 557.46 426.09 552.74 411.48 543.74 C 415.62 542.06 419.95 540.91 424.34 540.17 C 466.98 532.74 509.24 523.43 551.56 514.41 C 565.57 511.13 579.67 508.27 593.63 504.79 C 587.72 495.77 583.02 486.01 576.56 477.35 C 574.47 474.64 572.76 471.56 572.41 468.10 C 577.58 466.85 582.73 465.49 587.87 464.11 C 600.99 460.47 613.94 456.22 627.16 452.95 C 645.27 447.83 663.33 442.55 681.45 437.47 M 632.73 469.93 C 632.63 471.55 633.98 473.41 635.75 472.77 C 637.30 471.23 638.35 469.30 639.76 467.65 C 642.46 468.90 645.20 470.06 648.01 471.05 C 647.83 468.42 647.46 465.79 646.56 463.31 C 643.85 462.38 640.98 460.83 638.08 461.86 C 634.60 462.74 632.19 466.37 632.73 469.93 M 603.44 472.46 C 599.85 474.75 599.46 479.47 600.91 483.14 C 601.58 483.01 602.91 482.74 603.57 482.61 C 604.64 480.79 605.68 478.90 607.11 477.33 C 609.89 478.61 612.49 480.23 615.03 481.93 C 614.78 479.29 614.67 476.65 614.23 474.04 C 611.23 471.71 606.88 469.92 603.44 472.46 Z" />
<path fill="#22455a" opacity="1.00" d=" M 564.32 489.25 C 567.68 487.92 572.33 488.32 574.17 491.86 C 577.70 497.03 572.14 505.35 565.97 503.32 C 559.32 502.16 559.00 492.27 564.32 489.25 Z" />
<path fill="#22455a" opacity="1.00" d=" M 534.38 496.29 C 538.31 494.48 543.78 497.39 543.46 502.00 C 544.21 506.87 538.59 511.41 534.09 509.05 C 528.64 506.98 529.15 498.31 534.38 496.29 Z" />
<path fill="#22455a" opacity="1.00" d=" M 509.30 502.12 C 512.62 500.78 516.59 503.61 516.58 507.17 C 517.07 511.10 512.94 515.09 509.07 513.20 C 504.11 511.56 504.64 503.83 509.30 502.12 Z" />
<path fill="#22455a" opacity="1.00" d=" M 485.30 507.11 C 488.42 505.50 493.09 507.25 493.32 511.06 C 494.27 515.43 488.82 520.03 484.86 517.27 C 480.81 515.15 481.13 508.89 485.30 507.11 Z" />
<path fill="#22455a" opacity="1.00" d=" M 463.29 512.00 C 466.74 510.70 471.58 512.88 471.37 516.99 C 471.63 520.35 468.34 523.16 465.05 522.42 C 460.08 521.93 459.18 514.33 463.29 512.00 Z" />
<path fill="#22455a" opacity="1.00" d=" M 444.27 516.05 C 447.94 514.47 451.27 518.41 450.41 521.94 C 450.29 527.27 440.85 527.00 440.71 521.97 C 440.32 519.47 441.94 516.92 444.27 516.05 Z" />
<path fill="#22455a" opacity="1.00" d=" M 425.32 520.24 C 429.19 519.03 431.43 523.68 430.25 526.87 C 429.59 530.78 423.31 531.82 421.74 528.09 C 419.64 525.06 421.65 520.63 425.32 520.24 Z" />
<path fill="#22455a" opacity="1.00" d=" M 405.17 524.44 C 408.23 524.09 411.06 526.80 410.32 529.94 C 410.56 534.26 403.52 536.28 401.76 532.12 C 399.35 529.16 401.47 524.70 405.17 524.44 Z" />
<path fill="#22455a" opacity="1.00" d=" M 377.31 530.18 C 379.89 529.00 383.70 529.43 384.89 532.37 C 386.30 536.17 381.98 540.48 378.15 539.08 C 374.42 537.95 374.34 532.09 377.31 530.18 Z" />
<path fill="#22455a" opacity="1.00" d=" M 551.23 585.26 C 553.30 584.18 555.37 582.79 557.77 582.58 C 559.86 583.14 561.67 584.42 563.50 585.56 C 573.44 592.32 584.57 597.13 595.86 601.16 C 609.70 605.76 623.92 609.72 638.54 610.70 C 652.81 611.82 667.25 611.83 681.44 609.79 C 687.81 608.95 694.26 608.43 700.46 606.63 C 704.64 605.40 708.87 604.39 713.12 603.43 C 694.75 619.21 670.86 627.55 646.97 629.86 C 606.59 633.50 565.44 620.43 533.49 595.73 C 538.97 591.54 545.31 588.75 551.23 585.26 Z" />
<path fill="#22455a" opacity="1.00" d=" M 385.59 597.08 C 391.17 595.90 396.05 592.90 401.02 590.26 C 407.32 593.28 413.41 596.80 420.05 599.06 C 430.08 602.58 440.54 604.72 451.05 606.25 C 459.73 607.61 468.55 606.98 477.30 607.57 C 456.29 619.63 429.23 622.57 407.03 611.97 C 399.18 608.19 391.17 603.98 385.59 597.08 Z" />
<path fill="#22455a" opacity="1.00" d=" M 265.27 596.30 C 268.90 594.63 272.19 592.14 276.11 591.21 C 282.00 592.44 286.64 596.79 292.27 598.79 C 306.48 604.23 321.80 606.70 337.00 606.48 C 351.70 606.78 366.10 603.22 380.18 599.41 C 373.51 606.88 364.96 612.39 356.32 617.31 C 338.73 627.36 318.06 630.74 298.02 630.35 C 277.69 630.10 257.61 625.16 239.07 616.94 C 234.26 614.75 233.86 608.75 232.14 604.38 C 243.55 603.79 254.93 601.21 265.27 596.30 Z" />
<path fill="#22455a" opacity="1.00" d=" M 743.85 591.94 C 746.73 590.42 749.69 592.61 752.28 593.77 C 761.46 598.98 771.59 602.49 782.04 604.04 C 786.29 604.54 790.64 605.14 794.45 607.27 C 792.46 611.77 791.11 616.54 788.90 620.94 C 788.32 622.56 786.30 622.13 785.01 622.01 C 766.94 617.82 749.05 610.82 734.83 598.61 C 737.65 596.16 740.43 593.55 743.85 591.94 Z" />
<path fill="#22455a" opacity="1.00" d=" M 475.58 638.62 C 489.90 632.72 502.52 623.45 513.97 613.14 C 530.05 626.10 547.44 637.79 566.86 645.12 C 583.90 651.66 601.70 656.80 620.02 657.72 C 640.89 659.06 662.12 656.93 681.93 650.01 C 698.69 644.59 713.93 635.16 727.09 623.52 C 730.19 625.51 733.24 627.58 736.29 629.66 C 748.44 638.07 762.43 643.57 776.86 646.58 L 777.72 646.80 C 772.97 655.04 768.75 663.81 762.50 671.03 C 762.05 671.11 761.15 671.29 760.70 671.38 C 748.12 668.24 736.66 661.98 725.93 654.87 C 719.29 659.64 712.91 664.82 705.70 668.74 C 691.48 676.87 675.53 681.26 659.58 684.52 C 638.61 688.88 616.82 688.09 595.84 684.24 C 577.14 680.54 558.56 675.36 541.57 666.54 C 531.13 661.70 521.66 655.16 512.07 648.88 C 496.27 660.88 478.03 669.95 458.45 673.64 C 438.37 677.52 416.63 677.20 397.98 668.00 C 393.62 666.03 390.02 662.77 385.76 660.66 C 380.85 662.77 377.18 667.02 372.33 669.30 C 347.89 681.66 319.72 685.01 292.69 682.45 C 286.84 681.79 281.06 680.61 275.21 679.91 C 269.91 679.80 267.71 674.57 265.13 670.84 C 260.26 663.16 254.33 656.03 250.98 647.50 C 251.73 647.66 253.23 647.99 253.98 648.16 C 264.45 651.70 275.15 654.64 286.17 655.74 C 302.31 657.35 318.81 657.46 334.70 653.83 C 353.30 649.70 370.77 640.77 385.20 628.35 C 393.13 634.40 401.71 639.83 411.34 642.73 C 432.41 648.93 455.34 646.74 475.58 638.62 Z" />
<path fill="#22455a" opacity="1.00" d=" M 507.74 684.68 C 509.32 683.95 511.11 682.27 512.94 683.20 C 517.53 685.39 521.48 688.67 525.95 691.11 C 535.05 696.24 544.41 700.97 554.12 704.87 C 570.35 710.78 587.16 715.21 604.27 717.68 C 622.17 720.24 640.32 718.77 658.13 716.21 C 674.22 713.71 689.88 708.63 704.55 701.59 C 712.11 698.05 718.86 693.12 725.80 688.54 C 731.60 691.91 737.54 695.08 743.89 697.29 C 739.47 703.91 733.55 709.33 728.17 715.15 C 706.30 738.28 680.44 757.67 651.97 771.93 C 621.64 787.33 588.74 797.88 554.96 802.17 C 547.94 803.01 540.93 804.05 533.87 804.49 C 510.28 805.53 486.55 804.76 463.24 800.82 C 445.66 798.24 428.59 793.07 411.82 787.32 C 395.19 781.42 378.95 774.30 363.79 765.23 C 345.26 754.35 327.39 742.10 311.95 727.08 C 305.96 721.11 299.49 715.62 293.96 709.21 C 300.99 709.20 307.98 710.03 315.01 710.23 C 336.50 710.46 358.58 707.03 377.60 696.54 C 380.32 695.16 382.89 693.25 385.95 692.77 C 390.74 693.85 394.75 696.95 399.23 698.87 C 411.52 704.91 425.47 706.27 438.99 706.18 C 463.28 705.64 487.57 698.31 507.74 684.68 M 430.99 741.69 C 415.44 743.81 399.70 743.61 384.08 742.85 C 377.07 741.29 369.86 741.20 362.77 740.23 C 356.09 739.40 349.55 737.63 342.84 737.03 C 355.64 744.91 370.69 749.15 385.68 749.65 L 386.13 750.29 C 406.97 752.94 428.15 751.71 448.75 747.81 C 466.46 744.44 483.83 739.01 500.07 731.14 C 503.67 729.49 506.99 727.06 510.91 726.21 C 513.09 726.74 515.05 727.91 517.03 728.96 C 539.89 741.91 565.80 749.20 591.92 751.28 C 603.86 752.97 616.00 752.40 628.02 752.02 C 647.40 750.48 667.34 747.30 684.21 737.03 C 672.77 738.50 661.47 740.93 649.97 742.07 C 631.43 744.78 612.62 743.93 593.99 742.92 C 564.66 740.16 536.19 730.08 511.03 714.89 C 486.57 729.28 458.94 737.54 430.99 741.69 Z" />
</g>
<g id="#89b3c7ff">
<path fill="#89b3c7" opacity="1.00" d=" M 497.21 302.04 C 500.52 302.08 503.84 302.19 507.16 302.29 C 507.36 306.50 507.38 310.72 507.22 314.94 C 503.26 314.98 499.31 315.02 495.36 314.94 L 495.45 314.09 C 495.70 312.58 496.01 311.08 496.27 309.58 C 496.63 307.36 496.89 305.14 497.12 302.91 L 497.21 302.04 Z" />
<path fill="#89b3c7" opacity="1.00" d=" M 515.95 302.04 C 518.94 302.02 521.94 302.00 524.94 302.05 C 526.69 306.41 528.44 310.77 530.10 315.18 C 525.37 315.34 520.65 315.33 515.93 315.20 C 515.78 310.81 515.79 306.42 515.95 302.04 Z" />
<path fill="#89b3c7" opacity="1.00" d=" M 450.92 323.67 C 465.52 322.92 480.16 323.30 494.78 323.33 C 494.85 326.65 494.92 329.98 495.00 333.32 C 491.67 333.33 488.34 333.53 485.04 333.99 C 482.09 334.42 479.15 334.87 476.21 335.28 C 476.10 335.90 475.89 337.14 475.78 337.76 C 474.98 340.95 474.14 344.15 472.94 347.23 C 470.48 353.51 463.68 357.57 457.00 357.29 C 452.24 357.43 448.09 354.83 444.27 352.32 C 444.20 356.32 444.35 360.44 443.13 364.31 C 441.10 370.24 435.07 374.26 428.93 374.67 C 424.81 374.89 420.97 373.07 417.29 371.46 C 416.95 374.29 417.04 377.30 415.83 379.94 C 414.28 381.97 412.01 383.25 409.99 384.75 C 410.17 387.24 410.59 389.76 410.15 392.24 C 408.88 394.48 406.55 395.81 404.60 397.38 C 406.96 400.77 410.25 404.81 408.21 409.16 C 406.39 415.62 396.02 417.40 392.75 411.29 C 390.28 407.26 393.28 402.93 393.63 398.78 C 393.05 395.76 390.71 393.23 390.65 390.10 C 391.45 386.54 394.53 384.18 396.89 381.62 C 396.55 377.48 395.88 372.48 399.59 369.57 C 403.47 365.34 409.55 366.30 414.54 367.47 C 413.38 362.76 412.07 357.63 413.99 352.93 C 416.05 347.47 421.43 343.60 427.22 343.14 C 432.43 342.52 437.30 344.90 441.89 347.04 C 441.88 342.68 441.20 338.07 442.93 333.93 C 444.89 330.02 448.19 327.03 450.92 323.67 Z" />
<path fill="#89b3c7" opacity="1.00" d=" M 528.26 323.32 L 529.00 323.26 C 528.76 326.71 528.70 330.18 528.83 333.64 C 530.49 333.69 532.16 333.75 533.83 333.82 C 533.61 341.08 533.79 348.35 533.72 355.61 C 523.34 355.65 512.97 355.68 502.59 355.50 C 502.98 355.49 503.77 355.46 504.16 355.45 C 507.67 355.29 511.17 355.12 514.68 354.96 C 514.33 353.15 513.89 351.36 513.45 349.58 C 518.39 349.26 523.34 349.21 528.29 349.11 C 528.26 346.10 528.26 343.09 528.28 340.09 C 522.81 340.14 517.34 340.12 511.87 340.11 C 511.99 338.47 512.17 336.85 512.35 335.23 C 513.97 334.72 515.59 334.20 517.24 333.76 C 520.81 333.63 524.39 333.62 527.97 333.64 C 528.06 330.19 528.10 326.75 528.26 323.32 Z" />
<path fill="#89b3c7" opacity="1.00" d=" M 491.28 340.24 C 493.86 340.21 496.45 340.15 499.04 340.07 C 499.10 343.15 499.15 346.22 499.19 349.31 C 496.54 349.22 493.90 349.13 491.26 349.06 C 491.29 346.11 491.30 343.18 491.28 340.24 Z" />
<path fill="#89b3c7" opacity="1.00" d=" M 498.46 364.33 C 502.80 364.27 507.15 364.27 511.50 364.34 C 511.65 367.25 511.82 370.16 512.00 373.08 C 520.90 373.80 529.83 374.02 538.75 374.47 C 538.72 376.50 538.71 378.54 538.71 380.58 C 529.71 380.83 520.71 380.68 511.75 379.93 C 512.24 377.91 512.75 375.90 513.29 373.89 C 503.79 373.30 494.23 374.26 484.79 372.88 L 484.86 372.01 C 486.19 372.17 487.53 372.34 488.87 372.51 C 491.87 372.89 494.89 373.03 497.92 373.15 C 498.10 370.21 498.29 367.27 498.46 364.33 Z" />
<path fill="#89b3c7" opacity="1.00" d=" M 495.26 389.15 C 500.85 389.16 506.45 389.26 512.04 389.36 C 512.34 391.78 512.55 394.22 512.89 396.64 C 507.01 397.20 501.11 397.47 495.22 397.16 C 495.25 394.49 495.26 391.82 495.26 389.15 Z" />
<path fill="#89b3c7" opacity="1.00" d=" M 509.88 404.75 C 519.93 403.26 530.03 405.14 540.03 406.20 C 544.11 406.54 547.95 408.08 551.39 410.26 C 537.91 411.96 524.32 408.00 510.92 410.77 C 512.72 409.71 516.68 408.42 515.41 405.75 C 513.61 405.18 511.73 404.93 509.88 404.75 Z" />
<path fill="#89b3c7" opacity="1.00" d=" M 513.18 419.60 C 524.23 419.99 535.36 420.66 546.06 423.64 C 536.00 423.62 525.98 424.78 515.99 425.93 C 515.05 423.82 514.12 421.70 513.18 419.60 Z" />
<path fill="#89b3c7" opacity="1.00" d=" M 613.48 448.04 C 639.92 439.58 667.06 433.39 693.10 423.69 C 695.60 424.87 698.11 426.09 700.43 427.63 C 704.28 430.93 707.99 434.41 711.98 437.55 C 711.09 438.82 710.20 440.10 709.31 441.39 C 705.18 438.70 701.42 435.23 696.73 433.57 C 691.40 433.37 686.53 436.23 681.45 437.47 C 663.33 442.55 645.27 447.83 627.16 452.95 C 627.24 452.59 627.39 451.89 627.47 451.54 C 622.54 451.85 617.61 450.83 613.48 448.04 Z" />
<path fill="#89b3c7" opacity="1.00" d=" M 465.28 434.94 C 468.16 434.16 471.05 433.43 473.95 432.73 C 473.90 435.58 473.79 438.44 473.76 441.29 C 474.62 441.32 476.35 441.38 477.21 441.41 C 472.96 442.18 468.79 443.32 464.58 444.30 C 464.96 441.19 465.25 438.07 465.28 434.94 Z" />
<path fill="#89b3c7" opacity="1.00" d=" M 561.68 442.01 C 562.19 440.61 562.72 439.22 563.36 437.89 C 565.25 438.38 567.15 438.86 569.06 439.33 C 566.65 440.35 564.17 441.22 561.68 442.01 Z" />
<path fill="#89b3c7" opacity="1.00" d=" M 530.83 448.07 C 538.11 444.28 545.74 441.31 553.40 438.39 C 552.91 442.21 552.03 446.11 552.77 449.96 C 554.12 453.82 557.42 456.54 560.04 459.55 C 551.87 459.75 542.98 460.58 535.65 456.21 C 532.67 454.58 531.62 451.14 530.83 448.07 Z" />
<path fill="#89b3c7" opacity="1.00" d=" M 516.58 448.86 C 516.88 445.53 520.50 444.48 522.77 442.69 C 522.44 446.78 521.47 450.87 521.90 454.99 C 522.80 459.95 526.74 463.50 529.94 467.12 C 521.59 469.42 513.25 471.80 504.80 473.75 C 505.93 469.29 507.02 464.83 508.12 460.37 C 507.00 459.72 505.89 459.09 504.78 458.46 C 504.96 455.94 504.95 453.42 504.99 450.91 C 507.17 450.25 509.37 449.66 511.54 448.96 C 512.71 454.15 513.20 459.45 513.29 464.77 C 514.35 464.76 515.41 464.75 516.48 464.75 C 516.22 459.47 515.69 454.12 516.58 448.86 Z" />
<path fill="#89b3c7" opacity="1.00" d=" M 646.56 463.31 C 647.46 465.79 647.83 468.42 648.01 471.05 C 645.20 470.06 642.46 468.90 639.76 467.65 C 641.79 465.86 644.20 464.61 646.56 463.31 Z" />
<path fill="#89b3c7" opacity="1.00" d=" M 523.16 482.06 C 539.62 477.58 556.09 473.07 572.41 468.10 C 572.76 471.56 574.47 474.64 576.56 477.35 C 583.02 486.01 587.72 495.77 593.63 504.79 C 579.67 508.27 565.57 511.13 551.56 514.41 C 509.24 523.43 466.98 532.74 424.34 540.17 C 419.95 540.91 415.62 542.06 411.48 543.74 C 408.18 541.69 405.03 539.41 401.88 537.14 C 393.26 543.35 384.55 549.79 374.28 552.98 C 369.90 547.95 365.31 543.11 360.93 538.09 C 359.11 536.17 357.36 533.95 354.84 532.94 C 350.08 532.75 345.45 534.15 340.81 535.00 C 340.21 533.16 339.60 531.31 339.31 529.40 C 340.38 527.95 342.20 527.47 343.85 527.01 C 370.76 521.09 397.51 514.45 424.44 508.57 C 433.33 506.37 442.16 503.89 451.16 502.17 C 465.13 499.39 478.79 495.30 492.60 491.83 C 495.89 490.98 499.08 489.77 502.20 488.40 C 508.91 485.46 516.15 484.08 523.16 482.06 M 564.32 489.25 C 559.00 492.27 559.32 502.16 565.97 503.32 C 572.14 505.35 577.70 497.03 574.17 491.86 C 572.33 488.32 567.68 487.92 564.32 489.25 M 534.38 496.29 C 529.15 498.31 528.64 506.98 534.09 509.05 C 538.59 511.41 544.21 506.87 543.46 502.00 C 543.78 497.39 538.31 494.48 534.38 496.29 M 509.30 502.12 C 504.64 503.83 504.11 511.56 509.07 513.20 C 512.94 515.09 517.07 511.10 516.58 507.17 C 516.59 503.61 512.62 500.78 509.30 502.12 M 485.30 507.11 C 481.13 508.89 480.81 515.15 484.86 517.27 C 488.82 520.03 494.27 515.43 493.32 511.06 C 493.09 507.25 488.42 505.50 485.30 507.11 M 463.29 512.00 C 459.18 514.33 460.08 521.93 465.05 522.42 C 468.34 523.16 471.63 520.35 471.37 516.99 C 471.58 512.88 466.74 510.70 463.29 512.00 M 444.27 516.05 C 441.94 516.92 440.32 519.47 440.71 521.97 C 440.85 527.00 450.29 527.27 450.41 521.94 C 451.27 518.41 447.94 514.47 444.27 516.05 M 425.32 520.24 C 421.65 520.63 419.64 525.06 421.74 528.09 C 423.31 531.82 429.59 530.78 430.25 526.87 C 431.43 523.68 429.19 519.03 425.32 520.24 M 405.17 524.44 C 401.47 524.70 399.35 529.16 401.76 532.12 C 403.52 536.28 410.56 534.26 410.32 529.94 C 411.06 526.80 408.23 524.09 405.17 524.44 M 377.31 530.18 C 374.34 532.09 374.42 537.95 378.15 539.08 C 381.98 540.48 386.30 536.17 384.89 532.37 C 383.70 529.43 379.89 529.00 377.31 530.18 Z" />
<path fill="#89b3c7" opacity="1.00" d=" M 442.73 474.75 C 444.90 472.91 447.17 471.18 449.47 469.51 C 449.28 475.12 450.30 480.85 454.04 485.25 C 449.91 486.38 445.78 487.51 441.64 488.61 C 441.34 483.96 441.90 479.32 442.73 474.75 Z" />
<path fill="#89b3c7" opacity="1.00" d=" M 607.11 477.33 C 609.39 476.06 611.83 475.08 614.23 474.04 C 614.67 476.65 614.78 479.29 615.03 481.93 C 612.49 480.23 609.89 478.61 607.11 477.33 Z" />
<path fill="#89b3c7" opacity="1.00" d=" M 471.20 480.71 C 473.40 480.25 475.60 479.77 477.80 479.25 C 477.70 481.66 477.65 484.07 477.61 486.49 C 475.75 486.88 473.91 487.29 472.07 487.72 C 471.78 485.38 471.50 483.04 471.20 480.71 Z" />
<path fill="#89b3c7" opacity="1.00" d=" M 382.88 485.88 C 389.36 484.56 395.89 483.41 402.50 483.04 C 402.17 484.91 402.41 487.49 400.11 488.15 C 394.03 490.60 387.50 491.67 381.15 493.23 C 380.50 492.31 379.87 491.39 379.26 490.46 C 382.41 489.17 385.52 487.78 388.54 486.21 C 386.65 486.06 384.77 485.93 382.88 485.88 Z" />
<path fill="#89b3c7" opacity="1.00" d=" M 257.04 527.10 C 263.92 523.92 269.94 519.27 276.13 514.96 C 282.95 519.13 289.19 524.31 296.60 527.46 C 305.96 531.52 315.92 534.46 326.14 535.11 C 327.58 542.97 328.48 550.91 329.82 558.78 C 312.94 557.81 295.97 552.81 282.16 542.84 C 280.34 541.74 278.57 540.24 276.39 539.99 C 271.84 542.45 268.12 546.24 263.40 548.44 C 250.90 554.63 236.92 557.50 223.05 558.18 C 222.61 558.13 221.72 558.03 221.28 557.98 C 219.53 550.84 218.93 543.48 218.15 536.19 C 231.47 535.28 244.90 532.86 257.04 527.10 Z" />
<path fill="#89b3c7" opacity="1.00" d=" M 729.96 525.97 C 735.98 522.88 741.33 518.69 746.95 514.95 C 752.05 518.25 757.09 521.67 762.44 524.59 C 776.64 532.59 793.04 535.58 809.18 536.06 C 808.16 543.38 807.25 550.72 806.00 558.01 C 804.26 558.14 802.53 558.32 800.81 558.34 C 781.12 557.68 761.72 550.90 745.95 539.10 C 740.01 543.20 734.24 547.67 727.56 550.51 C 709.47 558.42 689.77 562.36 670.09 563.22 C 670.96 554.23 670.86 545.18 671.66 536.19 C 679.43 538.81 687.70 537.47 695.64 536.58 C 707.60 535.15 719.26 531.48 729.96 525.97 Z" />
<path fill="#89b3c7" opacity="1.00" d=" M 531.87 569.86 C 541.19 566.02 549.22 559.86 557.85 554.78 C 570.47 562.82 582.75 571.74 596.91 576.96 C 616.78 584.10 637.78 588.85 659.00 588.39 C 682.59 588.93 706.15 583.96 727.89 574.91 C 734.46 572.23 739.75 567.38 745.75 563.73 C 748.42 565.59 751.08 567.47 753.81 569.25 C 767.44 578.22 783.96 582.24 800.18 581.99 C 800.58 584.02 800.81 586.17 800.12 588.19 C 798.30 594.57 795.46 600.67 794.45 607.27 C 790.64 605.14 786.29 604.54 782.04 604.04 C 771.59 602.49 761.46 598.98 752.28 593.77 C 749.69 592.61 746.73 590.42 743.85 591.94 C 740.43 593.55 737.65 596.16 734.83 598.61 C 732.14 596.27 729.48 593.89 726.80 591.55 C 722.08 595.32 717.92 599.74 713.12 603.43 C 708.87 604.39 704.64 605.40 700.46 606.63 C 694.26 608.43 687.81 608.95 681.44 609.79 C 667.25 611.83 652.81 611.82 638.54 610.70 C 623.92 609.72 609.70 605.76 595.86 601.16 C 584.57 597.13 573.44 592.32 563.50 585.56 C 561.67 584.42 559.86 583.14 557.77 582.58 C 555.37 582.79 553.30 584.18 551.23 585.26 C 545.31 588.75 538.97 591.54 533.49 595.73 C 526.32 590.54 520.67 583.67 514.15 577.76 C 509.17 582.91 504.79 588.68 499.19 593.20 C 492.43 598.74 485.19 603.77 477.30 607.57 C 468.55 606.98 459.73 607.61 451.05 606.25 C 440.54 604.72 430.08 602.58 420.05 599.06 C 413.41 596.80 407.32 593.28 401.02 590.26 C 396.05 592.90 391.17 595.90 385.59 597.08 C 383.61 597.39 381.97 598.60 380.18 599.41 C 366.10 603.22 351.70 606.78 337.00 606.48 C 321.80 606.70 306.48 604.23 292.27 598.79 C 286.64 596.79 282.00 592.44 276.11 591.21 C 272.19 592.14 268.90 594.63 265.27 596.30 C 254.93 601.21 243.55 603.79 232.14 604.38 C 229.58 597.10 227.31 589.70 226.06 582.07 C 238.03 581.27 250.06 579.07 261.00 574.01 C 266.71 571.44 271.71 567.63 276.86 564.13 C 285.95 570.67 295.78 576.43 306.71 579.26 C 325.94 584.36 346.52 584.65 365.85 579.85 C 374.67 577.80 383.44 574.96 391.15 570.11 C 394.66 567.88 398.20 565.70 401.83 563.69 C 409.97 568.50 417.79 574.08 426.90 576.95 C 445.27 582.91 464.91 584.99 484.12 583.08 C 500.50 580.72 516.62 576.30 531.87 569.86 Z" />
<path fill="#89b3c7" opacity="1.00" d=" M 486.88 673.76 C 496.31 669.66 504.54 663.45 513.04 657.78 C 529.68 670.01 548.29 679.56 567.93 685.95 C 585.43 691.26 603.62 695.16 622.00 694.71 C 633.85 694.54 645.81 695.36 657.56 693.26 C 672.82 690.71 687.80 686.17 701.88 679.77 C 710.42 675.71 718.16 670.24 726.00 665.02 C 729.62 667.01 733.20 669.09 736.78 671.16 C 743.00 674.76 749.78 677.20 756.35 680.09 C 753.19 686.50 748.25 691.71 743.89 697.29 C 737.54 695.08 731.60 691.91 725.80 688.54 C 718.86 693.12 712.11 698.05 704.55 701.59 C 689.88 708.63 674.22 713.71 658.13 716.21 C 640.32 718.77 622.17 720.24 604.27 717.68 C 587.16 715.21 570.35 710.78 554.12 704.87 C 544.41 700.97 535.05 696.24 525.95 691.11 C 521.48 688.67 517.53 685.39 512.94 683.20 C 511.11 682.27 509.32 683.95 507.74 684.68 C 487.57 698.31 463.28 705.64 438.99 706.18 C 425.47 706.27 411.52 704.91 399.23 698.87 C 394.75 696.95 390.74 693.85 385.95 692.77 C 382.89 693.25 380.32 695.16 377.60 696.54 C 358.58 707.03 336.50 710.46 315.01 710.23 C 307.98 710.03 300.99 709.20 293.96 709.21 L 293.39 709.20 C 289.32 702.63 282.05 698.40 279.44 690.92 C 281.04 690.72 282.65 690.60 284.27 690.56 C 296.10 692.11 308.05 691.85 319.95 691.52 C 336.28 690.13 352.74 687.34 367.86 680.75 C 374.30 678.01 380.17 674.15 386.05 670.40 C 392.61 673.61 398.70 677.84 405.68 680.19 C 414.70 683.52 424.40 684.45 433.95 684.66 C 452.07 684.66 470.45 681.67 486.88 673.76 Z" />
<path fill="#89b3c7" opacity="1.00" d=" M 342.84 737.03 C 349.55 737.63 356.09 739.40 362.77 740.23 C 369.86 741.20 377.07 741.29 384.08 742.85 C 383.35 742.89 381.89 742.99 381.16 743.04 C 382.66 745.25 384.19 747.43 385.68 749.65 C 370.69 749.15 355.64 744.91 342.84 737.03 Z" />
<path fill="#89b3c7" opacity="1.00" d=" M 649.97 742.07 C 661.47 740.93 672.77 738.50 684.21 737.03 C 667.34 747.30 647.40 750.48 628.02 752.02 C 616.00 752.40 603.86 752.97 591.92 751.28 C 593.35 751.20 594.78 751.12 596.23 751.04 C 594.67 749.61 593.09 748.23 591.51 746.83 C 592.34 745.53 593.16 744.22 593.99 742.92 C 612.62 743.93 631.43 744.78 649.97 742.07 Z" />
</g>
</svg>
